<?xml version="1.0" encoding="utf-8"?>
<!-- Generator: Adobe Illustrator 24.0.0, SVG Export Plug-In . SVG Version: 6.00 Build 0)  -->
<svg version="1.1" id="Layer_1" xmlns="http://www.w3.org/2000/svg" xmlns:xlink="http://www.w3.org/1999/xlink" x="0px" y="0px"
	 viewBox="0 0 118.5 110.2" style="enable-background:new 0 0 118.5 110.2;" xml:space="preserve">
<style type="text/css">
	.st0{fill:#F5D2FF;}
	.st1{fill:#010101;}
</style>
<g>
	<path class="st0" d="M103.2,55.1c0-24.3-19.7-44-44-44c-24.3,0-44,19.7-44,44c0,24.3,19.7,44,44,44
		C83.5,99.1,103.2,79.4,103.2,55.1"/>
	<path class="st1" d="M80.7,39.2V51H65.1v-8.5h-23V26.9h26.3C75.2,26.9,80.7,32.4,80.7,39.2"/>
	<path class="st1" d="M49.5,77.7c0-5.4,4.4-9.8,9.8-9.8c5.4,0,9.8,4.4,9.8,9.8c0,5.4-4.4,9.8-9.8,9.8C53.8,87.4,49.5,83.1,49.5,77.7
		"/>
	<rect x="51.4" y="49" class="st1" width="15.6" height="15.6"/>
</g>
</svg>
